# xmcd CD database file
# Copyright (C) 1993-1996 Ti Kan
#
# Track frame offsets:
# 150
# 45692
# 89137
# 119030
# 148475
# 186165
# 221630
# 255127
# 276965
# 289057
# 302452
#
# Disc length: 4457 seconds
# Revision: 0
# Processed by: cddbd v1.4b41PL1 Copyright (c) Steve Scherf et al.
# Submitted via: CDSpectrumPro v3.2.328
#
DISCID=b011670b
DTITLE=Gary Bartz Ntu Troop - Juju Street Songs
DYEAR=1900
DGENRE=
TTITLE0=I Wanna Be Were You Are
TTITLE1=Black Maybe
TTITLE2=Bertha Baptist
TTITLE3=Africans Unite
TTITLE4=Teheran
TTITLE5=Sifa Zote
TTITLE6=Whasaname
TTITLE7=Betcha By Golly, Wow
TTITLE8=Dr. Follow's Dance
TTITLE9=Station On The Corner
TTITLE10=Sing Me A Song Today
EXTD=1-5 previously released on Juju Street Songs, 6-11 previously released on
EXTD=Follow, The Medicine Man
EXTT0=
EXTT1=
EXTT2=
EXTT3=
EXTT4=
EXTT5=
EXTT6=
EXTT7=
EXTT8=
EXTT9=
EXTT10=
PLAYORDER=
